{
	"asset":{
		"version":"2.0",
		"generator":"Created using the official Cinema 4D glTF Exporter 1.000x284978"
	},
	"scenes":[{
		"nodes":[0]
	}],
	"nodes":[{
		"name":"Cloud",
		"translation":[0.0,
		0.0,
		0.0],
		"mesh":0,
		"rotation":[0.0,
		0.0,
		0.7071067690849304,
		0.7071067690849304],
		"scale":[1.0,
		1.0,
		1.0]
	}],
	"meshes":[{
		"name":"Cloud",
		"primitives":[{
			"attributes":{
				"POSITION":1,
				"NORMAL":2,
				"TEXCOORD_0":3
			},
			"indices":0
		}]
	}],
	"accessors":[{
		"bufferView":0,
		"type":"SCALAR",
		"componentType":5123,
		"count":348,
		"byteOffset":0,
		"min":[0],
		"max":[129]
	},
	{
		"bufferView":1,
		"type":"VEC3",
		"componentType":5126,
		"count":130,
		"byteOffset":0,
		"min":[-1.1687042713165284,
		-0.307275652885437,
		-2.0554308891296388],
		"max":[1.1687042713165284,
		0.307275652885437,
		2.0554308891296388]
	},
	{
		"bufferView":1,
		"type":"VEC3",
		"componentType":5126,
		"count":130,
		"byteOffset":12,
		"min":[-0.9973999857902527,
		-1.0,
		-0.9999578595161438],
		"max":[0.9989140033721924,
		1.0,
		0.9978092312812805]
	},
	{
		"bufferView":1,
		"type":"VEC2",
		"componentType":5126,
		"count":130,
		"byteOffset":24,
		"min":[0.0,
		0.0],
		"max":[1.0,
		1.0]
	}],
	"bufferViews":[{
		"buffer":0,
		"target":34963,
		"byteOffset":0,
		"byteLength":696
	},
	{
		"buffer":0,
		"target":34962,
		"byteOffset":696,
		"byteLength":4160,
		"byteStride":32
	}],
	"buffers":[{
		"uri":"data:application/octet-stream;base64,",
		"byteLength":4856
	}]
}